<svg width="245" height="32" viewBox="0 0 245 32" fill="none" xmlns="http://www.w3.org/2000/svg">
<g clip-path="url(#clip0_2_25)">
<path d="M64.6592 30C72.3912 30 78.6592 23.732 78.6592 16C78.6592 8.26801 72.3912 2 64.6592 2C56.9272 2 50.6592 8.26801 50.6592 16C50.6592 23.732 56.9272 30 64.6592 30Z" fill="white"/>
<path d="M65.1863 0C56.6106 0 49.6592 7.16334 49.6592 16C49.6592 24.8366 56.6106 32 65.1863 32C73.7621 32 80.7135 24.8366 80.7135 16C80.7135 7.16334 73.7621 0 65.1863 0ZM69.9963 16.148C69.9963 13.4927 67.9072 11.3397 65.3299 11.3397C62.7531 11.3397 60.664 13.4923 60.664 16.148C60.664 18.8033 62.7531 20.9559 65.3299 20.9559V23.7036C61.2806 23.7036 57.9975 20.321 57.9975 16.148C57.9975 11.9751 61.2802 8.5924 65.3299 8.5924C69.3797 8.5924 72.6625 11.9751 72.6625 16.148H69.9963ZM74.4955 16.148C74.4955 10.9321 70.3922 6.7036 65.3299 6.7036C60.2682 6.7036 56.1648 10.9321 56.1648 16.148C56.1648 21.3638 60.2682 25.592 65.3299 25.592V28.7404C58.581 28.7404 53.1094 23.1024 53.1094 16.148C53.1094 9.19327 58.581 3.5556 65.3299 3.5556C72.0793 3.5556 77.5506 9.19327 77.5506 16.148H74.4955Z" fill="#F43E37"/>
</g>
<g clip-path="url(#clip1_2_25)">
<path fill-rule="evenodd" clip-rule="evenodd" d="M178.367 27.7357C178.056 28.5258 177.338 29.6383 176.32 30.4219C175.733 30.8745 175.031 31.3072 174.068 31.5927C173.04 31.8971 171.775 32 170.2 32H155.8C154.225 32 152.96 31.8971 151.933 31.5927C150.969 31.3072 150.267 30.8745 149.68 30.4219C148.662 29.6382 147.944 28.5258 147.633 27.7357C147.006 26.1438 147 24.3376 147 23.2V8.79997C147 7.66243 147.006 5.85622 147.633 4.26429C147.944 3.47418 148.662 2.36169 149.68 1.57806C150.267 1.12546 150.969 0.692826 151.933 0.407328C152.96 0.102881 154.225 0 155.8 0H170.2C171.775 0 173.04 0.102881 174.068 0.407328C175.031 0.692826 175.733 1.12559 176.321 1.57806C177.338 2.36182 178.056 3.47418 178.367 4.26429C178.994 5.85622 179 7.66243 179 8.79997V23.2C179 24.3375 178.994 26.1437 178.367 27.7357Z" fill="url(#paint0_linear_2_25)"/>
<path d="M165.321 18.3933C164.841 17.8867 163.997 17.5619 163.002 17.5619C162.006 17.5619 161.163 17.8867 160.682 18.3933C160.432 18.6577 160.299 18.9287 160.258 19.3148C160.177 20.0625 160.222 20.7062 160.31 21.7354C160.393 22.7161 160.552 24.024 160.758 25.356C160.906 26.3039 161.025 26.8155 161.134 27.1819C161.31 27.7756 161.97 28.2949 163.002 28.2949C164.033 28.2949 164.693 27.7755 164.869 27.1819C164.978 26.8155 165.098 26.3039 165.245 25.356C165.452 24.024 165.61 22.7161 165.694 21.7354C165.781 20.7061 165.827 20.0623 165.746 19.3148C165.704 18.9289 165.571 18.6577 165.321 18.3933ZM160.385 13.8822C160.385 15.3285 161.558 16.501 163.004 16.501C164.451 16.501 165.623 15.3285 165.623 13.8822C165.623 12.4358 164.451 11.2633 163.004 11.2633C161.558 11.2633 160.385 12.4358 160.385 13.8822ZM162.972 3.54704C156.847 3.56447 151.828 8.53341 151.752 14.658C151.691 19.6193 154.858 23.8632 159.28 25.4188C159.387 25.4565 159.496 25.3674 159.479 25.2549C159.421 24.8696 159.367 24.4825 159.317 24.1019C159.299 23.9674 159.213 23.8514 159.089 23.7971C155.593 22.27 153.153 18.7644 153.192 14.7037C153.243 9.37477 157.595 5.03036 162.924 4.98725C168.371 4.94325 172.817 9.36219 172.817 14.8C172.817 18.82 170.387 22.2826 166.919 23.7975C166.795 23.8518 166.71 23.9681 166.692 24.1026C166.642 24.483 166.587 24.87 166.529 25.2549C166.512 25.3674 166.621 25.4565 166.729 25.4189C171.109 23.8782 174.257 19.7003 174.257 14.8001C174.257 8.58415 169.191 3.52924 162.972 3.54704ZM162.768 8.70954C166.24 8.57512 169.108 11.3607 169.108 14.8034C169.108 16.5543 168.366 18.1351 167.181 19.2483C167.08 19.3427 167.026 19.4767 167.034 19.6144C167.057 20.0332 167.049 20.4402 167.021 20.8998C167.013 21.0222 167.151 21.1004 167.252 21.0314C169.24 19.6727 170.548 17.3881 170.548 14.8034C170.548 10.5478 167.003 7.10439 162.711 7.27073C158.723 7.42537 155.523 10.7139 155.471 14.7053C155.438 17.3303 156.754 19.6559 158.767 21.0316C158.869 21.1007 159.005 21.0224 158.998 20.9C158.97 20.4402 158.961 20.0332 158.985 19.6144C158.993 19.4768 158.939 19.3428 158.838 19.2486C157.616 18.1007 156.865 16.4558 156.913 14.6398C156.997 11.444 159.574 8.83328 162.768 8.70954Z" fill="white"/>
</g>
<g clip-path="url(#clip2_2_25)">
<path d="M129.659 16C129.659 24.8889 122.527 32 113.892 32C105.258 32 98.0002 24.8889 98.0002 16C98.0002 7.11112 105.133 0 113.767 0C122.402 0 129.659 7.11112 129.659 16Z" fill="url(#paint1_linear_2_25)"/>
<path d="M102.67 17.069C102.676 17.0161 102.714 16.9789 102.761 16.9789C102.806 16.9789 102.844 17.0161 102.851 17.0687L103.048 18.3457L102.851 19.601C102.844 19.6536 102.807 19.6902 102.761 19.6902C102.714 19.6902 102.676 19.6533 102.67 19.6005L102.504 18.3457L102.67 17.069Z" fill="white"/>
<path d="M103.598 16.1888C103.646 16.1888 103.685 16.2267 103.693 16.2815L103.946 18.3458L103.692 20.3649C103.685 20.4196 103.646 20.4576 103.598 20.4576C103.55 20.4576 103.51 20.4185 103.504 20.3644L103.281 18.3458L103.504 16.2815C103.511 16.2279 103.55 16.1888 103.598 16.1888Z" fill="white"/>
<path d="M107.03 14.5498C107.035 14.4534 107.11 14.3774 107.202 14.3774C107.292 14.3774 107.368 14.4534 107.373 14.5498L107.574 18.3476L107.373 20.8022V20.8015C107.368 20.8977 107.292 20.9736 107.202 20.9736C107.11 20.9736 107.035 20.8979 107.03 20.802L106.853 18.3476L107.03 14.5498Z" fill="white"/>
<path d="M105.252 15.8302C105.258 15.7543 105.315 15.6975 105.385 15.6975C105.455 15.6975 105.512 15.7543 105.518 15.8297L105.745 18.3466L105.518 20.7812C105.512 20.8566 105.455 20.9135 105.385 20.9135C105.315 20.9135 105.258 20.8566 105.252 20.7812L105.052 18.3466L105.252 15.8302Z" fill="white"/>
<path d="M109.256 20.7619C109.252 20.8806 109.16 20.9733 109.047 20.9733C108.932 20.9733 108.84 20.8803 108.837 20.7627L108.682 18.3485L108.837 13.2928C108.84 13.1741 108.933 13.0812 109.047 13.0812C109.16 13.0812 109.252 13.1739 109.257 13.2925L109.43 18.3488L109.256 20.7619Z" fill="white"/>
<path d="M113.112 20.6944C113.109 20.8545 112.981 20.9848 112.825 20.9848C112.669 20.9848 112.54 20.8545 112.537 20.6958C112.537 20.6958 112.429 18.3522 112.429 18.3485L112.537 12.511C112.54 12.3506 112.669 12.2203 112.825 12.2203C112.981 12.2203 113.11 12.3509 113.112 12.5108L113.234 18.3504L113.112 20.6944Z" fill="white"/>
<path d="M111.17 20.724C111.167 20.8649 111.057 20.9754 110.921 20.9754C110.785 20.9754 110.676 20.8649 110.673 20.7255L110.541 18.3495L110.672 13.2563C110.675 13.1154 110.785 13.0051 110.921 13.0051C111.057 13.0051 111.166 13.1154 111.17 13.2563L111.318 18.3492L111.17 20.7257V20.724Z" fill="white"/>
<path d="M106.442 20.8012C106.436 20.8875 106.371 20.953 106.29 20.953C106.208 20.953 106.143 20.8875 106.138 20.8009L105.949 18.3463L106.138 16.0121C106.143 15.9253 106.208 15.8597 106.29 15.8597C106.371 15.8597 106.436 15.9248 106.442 16.011L106.656 18.3463L106.442 20.8012Z" fill="white"/>
<path d="M104.602 20.7063C104.595 20.7716 104.547 20.8188 104.488 20.8188C104.428 20.8188 104.38 20.7713 104.375 20.7059L104.163 18.3461L104.375 15.8969C104.381 15.8317 104.428 15.7842 104.488 15.7842C104.547 15.7842 104.595 15.8315 104.602 15.8969L104.842 18.3461L104.602 20.7063Z" fill="white"/>
<path d="M111.601 13.4426C111.604 13.2903 111.722 13.1714 111.869 13.1714C112.016 13.1714 112.134 13.2903 112.137 13.4421L112.272 18.3499L112.137 20.7111V20.7091C112.134 20.8613 112.016 20.98 111.869 20.98C111.722 20.98 111.604 20.8611 111.601 20.7108L111.481 18.3497L111.601 13.4426Z" fill="white"/>
<path d="M108.311 20.7863C108.307 20.8938 108.223 20.9782 108.121 20.9782C108.018 20.9782 107.934 20.8938 107.93 20.7873L107.764 18.3483L107.93 13.6817C107.934 13.5742 108.018 13.4899 108.121 13.4899C108.223 13.4899 108.306 13.5739 108.311 13.6817L108.499 18.3483L108.311 20.7863Z" fill="white"/>
<path d="M110.21 20.7478V20.7475C110.205 20.8764 110.105 20.9777 109.981 20.9777C109.856 20.9777 109.755 20.876 109.751 20.7476L109.608 18.3485L109.751 13.1221C109.754 12.9921 109.855 12.8905 109.981 12.8905C110.105 12.8905 110.206 12.9923 110.21 13.1221L110.371 18.3488L110.21 20.7465V20.7475C110.21 20.7472 110.21 20.747 110.21 20.7468V20.7478Z" fill="white"/>
<path d="M121.292 15.5558C121.623 15.4147 121.988 15.3364 122.369 15.3364C123.908 15.3364 125.155 16.6024 125.155 18.164C125.155 19.7255 123.908 20.9914 122.369 20.9914C122.319 20.9914 114.653 20.9875 114.646 20.9867C114.48 20.9696 114.348 20.8255 114.346 20.6525V11.6794C114.348 11.5145 114.404 11.4295 114.614 11.3469C115.155 11.1346 115.767 11.009 116.396 11.009C118.964 11.009 121.07 13.0078 121.292 15.5558Z" fill="white"/>
<path d="M113.469 11.982C113.471 11.8108 113.609 11.6714 113.776 11.6714C113.943 11.6714 114.08 11.8108 114.083 11.9816L114.219 18.351L114.083 20.6628V20.66C114.08 20.8314 113.943 20.9705 113.776 20.9705C113.609 20.9705 113.471 20.8314 113.469 20.6625L113.343 18.351L113.469 11.982Z" fill="white"/>
</g>
<g clip-path="url(#clip3_2_25)">
<path d="M211.938 30C219.704 30 226 23.704 226 15.9375C226 8.171 219.704 1.875 211.938 1.875C204.171 1.875 197.875 8.171 197.875 15.9375C197.875 23.704 204.171 30 211.938 30Z" fill="white"/>
<path fill-rule="evenodd" clip-rule="evenodd" d="M196.662 15.9375C196.662 7.50114 203.501 0.662109 211.937 0.662109C220.374 0.662109 227.213 7.50114 227.213 15.9375C227.213 24.3739 220.374 31.2129 211.937 31.2129C203.501 31.2129 196.662 24.3739 196.662 15.9375ZM211.937 3.08789C204.841 3.08789 199.088 8.84086 199.088 15.9375C199.088 23.0341 204.841 28.7871 211.937 28.7871C219.034 28.7871 224.787 23.0341 224.787 15.9375C224.787 8.84086 219.034 3.08789 211.937 3.08789Z" fill="#363F46"/>
<path d="M204.303 9.99902C204.303 9.99902 202.358 12.1928 202.358 16.0258C202.358 19.8588 204.303 21.9642 204.303 21.9642" fill="white"/>
<path fill-rule="evenodd" clip-rule="evenodd" d="M205.215 10.7982C205.215 10.7982 205.215 10.7982 205.215 10.7982C205.215 10.7991 205.213 10.8008 205.211 10.8034C205.204 10.8115 205.191 10.8276 205.172 10.8515C205.134 10.8995 205.074 10.9787 204.999 11.0882C204.849 11.3074 204.639 11.6455 204.427 12.0938C204.004 12.9891 203.571 14.3191 203.571 16.0258C203.571 17.7315 204.003 19.0364 204.423 19.9044C204.633 20.3395 204.84 20.6648 204.989 20.8741C205.063 20.9786 205.122 21.0538 205.159 21.0987C205.177 21.1211 205.19 21.136 205.196 21.1431C205.198 21.1451 205.199 21.1465 205.2 21.1473C205.648 21.6396 205.616 22.4025 205.126 22.8552C204.634 23.3097 203.867 23.2792 203.412 22.7872L204.303 21.9642C203.412 22.7872 203.412 22.7868 203.411 22.7864L203.409 22.7836L203.405 22.7792L203.395 22.7681C203.387 22.7596 203.378 22.7489 203.367 22.7362C203.344 22.7106 203.315 22.6765 203.28 22.6338C203.211 22.5487 203.118 22.4294 203.01 22.2766C202.793 21.9714 202.515 21.5308 202.239 20.9604C201.686 19.8174 201.146 18.1531 201.146 16.0258C201.146 13.8996 201.686 12.2162 202.234 11.0563C202.508 10.477 202.785 10.0272 202.999 9.71524C203.106 9.55912 203.198 9.43704 203.267 9.35004C203.301 9.30653 203.33 9.27173 203.351 9.24577C203.362 9.23279 203.371 9.22202 203.379 9.21347L203.389 9.2023L203.392 9.19798L203.394 9.19612L203.395 9.19528C203.395 9.19488 203.395 9.19448 204.303 9.99904L203.395 9.19448C203.84 8.69321 204.606 8.64706 205.108 9.09141C205.607 9.53414 205.655 10.2968 205.215 10.7982Z" fill="#FC7E0F"/>
<path d="M219.796 9.99902C219.796 9.99902 221.74 12.1928 221.74 16.0258C221.74 19.8588 219.796 21.9642 219.796 21.9642" fill="white"/>
<path fill-rule="evenodd" clip-rule="evenodd" d="M218.991 9.0914C219.493 8.64706 220.259 8.69322 220.704 9.19449L219.796 9.99904C220.704 9.19449 220.704 9.19488 220.704 9.19529L220.705 9.19613L220.707 9.19798L220.71 9.20231L220.72 9.21348C220.727 9.22203 220.737 9.2328 220.748 9.24578C220.769 9.27173 220.798 9.30654 220.832 9.35005C220.901 9.43705 220.993 9.55913 221.1 9.71525C221.314 10.0272 221.591 10.4771 221.865 11.0563C222.413 12.2162 222.953 13.8996 222.953 16.0258C222.953 18.1531 222.413 19.8174 221.86 20.9604C221.584 21.5308 221.306 21.9714 221.089 22.2766C220.981 22.4294 220.888 22.5487 220.819 22.6338C220.784 22.6764 220.755 22.7106 220.732 22.7361C220.721 22.7489 220.712 22.7596 220.704 22.7681L220.694 22.7792L220.69 22.7836L220.688 22.7855L220.688 22.7863C220.687 22.7868 220.687 22.7872 219.796 21.9642L220.687 22.7872C220.232 23.2792 219.465 23.3097 218.973 22.8552C218.483 22.4026 218.451 21.6396 218.899 21.1473C218.9 21.147 218.9 21.1466 218.9 21.1461C218.901 21.1453 218.902 21.1443 218.903 21.1431C218.909 21.136 218.922 21.1211 218.94 21.0987C218.977 21.0538 219.036 20.9786 219.11 20.8741C219.258 20.6648 219.466 20.3395 219.676 19.9044C220.096 19.0364 220.528 17.7315 220.528 16.0258C220.528 14.3191 220.095 12.9891 219.672 12.0938C219.46 11.6455 219.25 11.3074 219.1 11.0882C219.025 10.9787 218.965 10.8995 218.927 10.8515C218.908 10.8276 218.895 10.8115 218.888 10.8034C218.886 10.8008 218.884 10.7991 218.883 10.7981M218.991 9.0914C218.492 9.53413 218.444 10.2968 218.883 10.7981Z" fill="#FC7E0F"/>
<path d="M216.694 12.5625C216.694 12.5625 218.004 14.1938 217.972 16.0179C217.932 18.2116 216.71 19.417 216.71 19.417" fill="white"/>
<path fill-rule="evenodd" clip-rule="evenodd" d="M215.935 11.6167C216.457 11.1973 217.221 11.2808 217.64 11.8031L216.694 12.5625C217.64 11.8031 217.64 11.8028 217.64 11.8031L217.642 11.8055L217.644 11.8084L217.65 11.8163L217.668 11.8392C217.683 11.8576 217.702 11.8824 217.724 11.9132C217.77 11.9748 217.832 12.0606 217.904 12.1679C218.048 12.3816 218.238 12.6856 218.426 13.0562C218.794 13.7787 219.206 14.8477 219.185 16.0393C219.16 17.3634 218.778 18.4024 218.394 19.1158C218.202 19.4715 218.009 19.7477 217.857 19.9414C217.782 20.0384 217.716 20.1153 217.665 20.1717C217.64 20.1999 217.618 20.2231 217.601 20.2412L217.578 20.2646L217.569 20.2734L217.566 20.277L217.564 20.2787L217.563 20.2795C217.563 20.2799 217.562 20.2803 216.71 19.417L217.562 20.2803C217.086 20.7508 216.318 20.7457 215.847 20.269C215.38 19.7954 215.382 19.0347 215.849 18.5634C215.851 18.5613 215.855 18.5569 215.861 18.5501C215.877 18.5321 215.907 18.4977 215.946 18.4474C216.025 18.3464 216.14 18.1842 216.259 17.9644C216.495 17.5266 216.743 16.8655 216.759 15.9961C216.77 15.3637 216.543 14.7052 216.264 14.1561C216.129 13.8909 215.993 13.673 215.893 13.5238C215.843 13.4497 215.802 13.3939 215.777 13.3591C215.764 13.3417 215.754 13.3297 215.75 13.3233L215.746 13.3184C215.329 12.7962 215.414 12.0352 215.935 11.6167ZM215.857 18.555C215.857 18.5549 215.857 18.5551 215.857 18.555Z" fill="#FC7E0F"/>
<path d="M207.341 12.5625C207.341 12.5625 206.031 14.1938 206.063 16.0179C206.103 18.2116 207.325 19.417 207.325 19.417" fill="white"/>
<path fill-rule="evenodd" clip-rule="evenodd" d="M208.287 13.3214L208.288 13.3201L208.289 13.3189C208.289 13.3183 208.289 13.3188 208.289 13.3189C208.288 13.3197 208.288 13.3206 208.287 13.3214ZM207.276 15.9961C207.265 15.3637 207.492 14.7052 207.771 14.1561C207.906 13.8909 208.042 13.673 208.142 13.5238C208.192 13.4497 208.233 13.3939 208.258 13.3591C208.271 13.3417 208.281 13.3297 208.285 13.3233L208.289 13.3189C208.705 12.7967 208.621 12.0352 208.1 11.6167C207.578 11.1973 206.814 11.2808 206.395 11.8031L207.324 12.5489C206.395 11.8031 206.395 11.8028 206.395 11.8031L206.393 11.8055L206.391 11.8084L206.385 11.8163L206.367 11.8392C206.352 11.8576 206.334 11.8824 206.311 11.9132C206.265 11.9748 206.203 12.0606 206.131 12.1679C205.987 12.3816 205.797 12.6856 205.609 13.0562C205.241 13.7787 204.829 14.8477 204.85 16.0393C204.875 17.3634 205.257 18.4024 205.641 19.1158C205.833 19.4715 206.026 19.7477 206.178 19.9414C206.253 20.0384 206.319 20.1153 206.37 20.1717C206.395 20.1999 206.417 20.2231 206.434 20.2412L206.457 20.2646L206.466 20.2734L206.469 20.277L206.471 20.2787L206.472 20.2795C206.472 20.2799 206.473 20.2803 207.325 19.417L206.473 20.2803C206.949 20.7508 207.717 20.7457 208.188 20.269C208.655 19.7954 208.653 19.0347 208.186 18.5634C208.184 18.5613 208.18 18.5569 208.174 18.5501C208.158 18.5321 208.128 18.4977 208.089 18.4474C208.01 18.3464 207.895 18.1842 207.777 17.9644C207.54 17.5266 207.292 16.8655 207.276 15.9961Z" fill="#FC7E0F"/>
<path d="M211.936 18.1206C213.141 18.1206 214.119 17.1433 214.119 15.9377C214.119 14.7322 213.141 13.7549 211.936 13.7549C210.73 13.7549 209.753 14.7322 209.753 15.9377C209.753 17.1433 210.73 18.1206 211.936 18.1206Z" fill="#363F46"/>
<path d="M212.305 17.9767L210.756 17.5605L208.178 27.1924L209.726 27.6085L212.305 17.9767Z" fill="#363F46"/>
<path d="M211.705 17.964L213.247 17.5547L215.812 27.1934L214.27 27.6027L211.705 17.964Z" fill="#363F46"/>
<path d="M210.272 23.1618L210.845 22.5752L214.815 26.4429L214.242 27.0296L210.272 23.1618Z" fill="#363F46"/>
<path d="M213.635 23.1825L213.117 22.6572L209.181 26.5659L209.699 27.0912L213.635 23.1825Z" fill="#363F46"/>
</g>
<g clip-path="url(#clip4_2_25)">
<path d="M15.9994 0.0527344C7.19005 0.0527344 0.0483398 7.19426 0.0483398 16.0036C0.0483398 24.8133 7.19005 31.9543 15.9994 31.9543C24.8097 31.9543 31.9506 24.8133 31.9506 16.0036C31.9506 7.19483 24.8097 0.0534963 15.9992 0.0534963L15.9994 0.0527344ZM23.3144 23.0584C23.0287 23.527 22.4154 23.6756 21.9468 23.388C18.2017 21.1004 13.487 20.5823 7.93463 21.8508C7.39958 21.9727 6.86624 21.6375 6.74434 21.1023C6.62186 20.567 6.95577 20.0337 7.49215 19.9118C13.5683 18.523 18.7803 19.1213 22.9849 21.6908C23.4535 21.9784 23.6021 22.5899 23.3144 23.0584ZM25.2668 18.7146C24.9068 19.3004 24.1411 19.4851 23.5563 19.1251C19.2687 16.4891 12.7329 15.7259 7.66148 17.2653C7.00377 17.464 6.3091 17.0933 6.10948 16.4367C5.91139 15.779 6.28224 15.0857 6.93882 14.8857C12.7318 13.128 19.9335 13.9794 24.8573 17.0051C25.4421 17.3651 25.6268 18.1308 25.2668 18.7148V18.7146ZM25.4344 14.192C20.2935 11.1384 11.8116 10.8577 6.9032 12.3474C6.11501 12.5864 5.28148 12.1415 5.04263 11.3533C4.80377 10.5647 5.24834 9.73178 6.0371 9.49216C11.6716 7.78169 21.0382 8.11216 26.9571 11.6259C27.6676 12.0466 27.9 12.9623 27.479 13.6703C27.06 14.3792 26.1419 14.6129 25.4352 14.192H25.4344Z" fill="#1ED760"/>
</g>
<defs>
<linearGradient id="paint0_linear_2_25" x1="163" y1="0" x2="163" y2="32" gradientUnits="userSpaceOnUse">
<stop stop-color="#F452FF"/>
<stop offset="1" stop-color="#832BC1"/>
</linearGradient>
<linearGradient id="paint1_linear_2_25" x1="113.83" y1="0" x2="113.83" y2="32" gradientUnits="userSpaceOnUse">
<stop stop-color="#FF7602"/>
<stop offset="1" stop-color="#FF3502"/>
</linearGradient>
<clipPath id="clip0_2_25">
<rect width="32" height="32" fill="white" transform="translate(49)"/>
</clipPath>
<clipPath id="clip1_2_25">
<rect width="32" height="32" fill="white" transform="translate(147)"/>
</clipPath>
<clipPath id="clip2_2_25">
<rect width="32" height="32" fill="white" transform="translate(98)"/>
</clipPath>
<clipPath id="clip3_2_25">
<rect width="32" height="32" fill="white" transform="translate(196)"/>
</clipPath>
<clipPath id="clip4_2_25">
<rect width="32" height="32" fill="white"/>
</clipPath>
</defs>
</svg>
